<svg class="icon" viewBox="0 0 1024 1024" version="1.1" xmlns="http://www.w3.org/2000/svg"
    p-id="14477" width="32" height="32">
    <path
        d="M512 912.695652c221.295304 0 400.695652-179.400348 400.695652-400.695652S733.295304 111.304348 512 111.304348 111.304348 290.704696 111.304348 512s179.400348 400.695652 400.695652 400.695652z"
        fill="#0B77E3" fill-opacity=".2" p-id="14478"></path>
    <path
        d="M845.590261 464.562087a152.765217 152.765217 0 0 0-87.752348-43.430957 217.633391 217.633391 0 0 0-14.914783-53.76 218.86887 218.86887 0 0 0-46.892521-69.542956 218.86887 218.86887 0 0 0-69.542957-46.892522A220.338087 220.338087 0 0 0 540.861217 233.73913c-5.38713 0-10.729739 0.256-16.027826 0.634435a203.186087 203.186087 0 0 0-69.632 15.927652A218.88 218.88 0 0 0 339.745391 364.744348a74.852174 74.852174 0 0 0-33.502608-7.936 75.353043 75.353043 0 0 0-75.353044 75.353043c0 11.742609 2.771478 22.817391 7.546435 32.723479a131.717565 131.717565 0 0 0-91.314087 70.856347A130.938435 130.938435 0 0 0 133.565217 593.764174c0 69.754435 54.294261 126.664348 122.924522 131.172174l65.113044 0.445217h203.219478l81.185391-0.022261h131.31687a152.709565 152.709565 0 0 0 108.243478-44.866782A152.731826 152.731826 0 0 0 890.434783 572.204522c0-12.566261-1.691826-24.731826-4.563479-36.463305a154.423652 154.423652 0 0 0-40.281043-71.17913z"
        fill="#FFFFFF" p-id="14479"></path>
    <path
        d="M845.590261 464.562087a152.765217 152.765217 0 0 0-87.752348-43.430957 217.633391 217.633391 0 0 0-14.914783-53.76 218.86887 218.86887 0 0 0-46.892521-69.542956 218.86887 218.86887 0 0 0-69.542957-46.892522A220.338087 220.338087 0 0 0 540.861217 233.73913c-5.38713 0-10.729739 0.256-16.027826 0.634435a203.186087 203.186087 0 0 0-69.632 15.927652A218.88 218.88 0 0 0 339.745391 364.744348a74.852174 74.852174 0 0 0-33.502608-7.936 75.353043 75.353043 0 0 0-75.353044 75.353043c0 11.742609 2.771478 22.817391 7.546435 32.723479a131.717565 131.717565 0 0 0-91.314087 70.856347A130.938435 130.938435 0 0 0 133.565217 593.764174c0 69.754435 53.804522 126.664348 122.434783 131.172174L734.608696 723.478261c42.184348 0 83.322435-15.293217 110.970434-42.985739A152.731826 152.731826 0 0 0 890.434783 572.204522c0-12.566261-1.691826-24.731826-4.563479-36.463305a154.423652 154.423652 0 0 0-40.281043-71.17913z m-636.961391-32.400696a97.613913 97.613913 0 0 1 119.83026-95.042782 241.14087 241.14087 0 0 1 118.093913-107.319652 224.434087 224.434087 0 0 1 76.688696-17.630609c6.322087-0.445217 12.04313-0.690087 17.619478-0.690087 32.723478 0 64.890435 6.522435 94.297044 18.95513a241.107478 241.107478 0 0 1 76.610782 51.645218 241.129739 241.129739 0 0 1 51.656348 76.621913 238.636522 238.636522 0 0 1 13.612522 43.330782 175.026087 175.026087 0 0 1 84.301913 46.803479c22.216348 22.182957 38.188522 50.342957 46.169044 81.619478 3.417043 13.979826 5.197913 27.859478 5.186782 41.73913a174.970435 174.970435 0 0 1-51.366956 124.015305C828.772174 728.854261 781.690435 745.73913 734.608696 745.73913l-478.608696 0.022261c-81.964522-5.342609-144.695652-70.834087-144.695652-151.997217 0-23.763478 5.487304-46.803478 15.849739-67.862261a154.245565 154.245565 0 0 1 83.144348-75.909565 96.52313 96.52313 0 0 1-1.669565-17.830957z"
        fill="#5ab1fe" p-id="14480"></path>
    <path d="M601.043478 645.565217h100.173913v144.695653h-100.173913z" fill="#FFFFFF" p-id="14481"></path>
    <path
        d="M601.043478 523.152696A55.696696 55.696696 0 0 1 656.695652 467.478261a55.652174 55.652174 0 0 1 55.652174 55.674435V567.652174h44.521739v-44.555131C756.869565 467.834435 712.013913 422.956522 656.695652 422.956522c-55.340522 0-100.173913 44.833391-100.173913 100.140521V567.652174h44.521739v-44.499478z"
        fill="#646cff" p-id="14482"></path>
    <path
        d="M623.304348 567.652174h66.782609v-44.499478C690.086957 503.251478 672.166957 489.73913 656.695652 489.73913s-33.391304 13.245217-33.391304 33.413566V567.652174z m155.826087 0h22.294261A33.324522 33.324522 0 0 1 834.782609 601.065739v222.564174A33.335652 33.335652 0 0 1 801.424696 857.043478H511.966609A33.324522 33.324522 0 0 1 478.608696 823.629913V601.065739A33.335652 33.335652 0 0 1 511.966609 567.652174H534.26087v-44.555131C534.26087 467.789913 574.374957 400.695652 656.695652 400.695652s122.434783 67.138783 122.434783 122.401391V567.652174zM645.565217 721.586087v35.31687c0 6.054957 4.986435 11.097043 11.130435 11.097043 6.188522 0 11.130435-4.964174 11.130435-11.097043v-35.328a33.402435 33.402435 0 1 0-22.26087 0z m-44.521739-198.433391A55.696696 55.696696 0 0 1 656.695652 467.478261a55.652174 55.652174 0 0 1 55.652174 55.674435V567.652174h44.521739v-44.555131C756.869565 467.834435 712.013913 422.956522 656.695652 422.956522c-55.340522 0-100.173913 44.833391-100.173913 100.140521V567.652174h44.521739v-44.499478z"
        fill="#646cff" p-id="14483"></path>
    <path
        d="M623.304348 734.608696v22.260869c0 18.376348 14.948174 33.391304 33.391304 33.391305 18.398609 0 33.391304-14.948174 33.391305-33.391305v-22.260869a55.652174 55.652174 0 1 0-66.782609 0zM500.869565 601.065739c0-6.15513 4.897391-11.152696 11.097044-11.152696h289.458087c6.121739 0 11.097043 4.897391 11.097043 11.152696v222.564174A11.074783 11.074783 0 0 1 801.424696 834.782609H511.966609A11.063652 11.063652 0 0 1 500.869565 823.629913V601.065739z"
        fill="#646cff" p-id="14484"></path>
</svg>